<?xml version="1.0" encoding="utf-8"?>
<!-- Generator: Adobe Illustrator 19.0.0, SVG Export Plug-In . SVG Version: 6.00 Build 0)  -->
<svg version="1.1" id="图层_1" xmlns="http://www.w3.org/2000/svg" xmlns:xlink="http://www.w3.org/1999/xlink" x="0px" y="0px"
	 viewBox="6 86.3 512 128.7" style="enable-background:new 6 86.3 512 128.7;" xml:space="preserve">
<style type="text/css">
	.st0{fill:none;stroke:#282828;stroke-miterlimit:10;}
	.st1{fill:none;stroke:#282828;stroke-width:3;stroke-miterlimit:10;}
	.st2{fill:#666666;}
	.st3{fill:none;stroke:#AAAAAA;stroke-miterlimit:10;}
	.st4{fill:none;stroke:#AAAAAA;stroke-width:0.812;stroke-miterlimit:10;}
	.st5{font-family:'SourceHanSansCN-Light-GBpc-EUC-H';}
	.st6{font-size:12px;}
	.st7{fill:#999999;}
</style>
<circle id="XMLID_1_" class="st0" cx="29.3" cy="112.6" r="16"/>
<circle id="XMLID_21_" class="st1" cx="494.3" cy="112.6" r="16"/>
<g id="XMLID_5_">
	<rect id="XMLID_2_" x="45.8" y="112.2" class="st2" width="42.8" height="1.5"/>
	<polygon id="XMLID_3_" class="st2" points="88.5,118.3 88.5,107.7 97.4,113 	"/>
</g>
<g id="XMLID_7_">
	<rect id="XMLID_9_" x="187.6" y="112.2" class="st2" width="45.3" height="1.5"/>
	<polygon id="XMLID_8_" class="st2" points="232.9,118.3 232.9,107.7 241.9,113 	"/>
</g>
<g id="XMLID_11_">
	<rect id="XMLID_13_" x="279" y="112.2" class="st2" width="45.3" height="1.5"/>
	<polygon id="XMLID_12_" class="st2" points="324.4,118.3 324.4,107.7 333.3,113 	"/>
</g>
<g id="XMLID_16_">
	<rect id="XMLID_24_" x="423.8" y="112.2" class="st2" width="44.3" height="1.5"/>
	<polygon id="XMLID_23_" class="st2" points="467.9,118.3 467.9,107.7 476.9,113 	"/>
</g>
<g id="XMLID_10_">
	<rect id="XMLID_20_" x="377.7" y="141.1" class="st2" width="1.5" height="45.9"/>
	<polygon id="XMLID_19_" class="st2" points="383.8,142.3 373.2,142.3 378.5,133.3 	"/>
	<rect id="XMLID_18_" x="305.1" y="186.9" class="st2" width="74.1" height="1.5"/>
</g>
<rect id="XMLID_17_" x="259.5" y="131.9" class="st2" width="1.5" height="36"/>
<path id="XMLID_4_" class="st3" d="M179.6,132.7h-73.7c-4.4,0-8-3.6-8-8v-23.5c0-4.4,3.6-8,8-8h73.7c4.4,0,8,3.6,8,8v23.5
	C187.6,129.1,184,132.7,179.6,132.7z"/>
<path id="XMLID_14_" class="st3" d="M415.3,132.7h-73.7c-4.4,0-8-3.6-8-8v-23.5c0-4.4,3.6-8,8-8h73.7c4.4,0,8,3.6,8,8v23.5
	C423.3,129.1,419.7,132.7,415.3,132.7z"/>
<path id="XMLID_15_" class="st3" d="M297.1,207.4h-73.7c-4.4,0-8-3.6-8-8v-23.5c0-4.4,3.6-8,8-8h73.7c4.4,0,8,3.6,8,8v23.5
	C305.1,203.8,301.5,207.4,297.1,207.4z"/>
<rect id="XMLID_6_" x="247.3" y="100" transform="matrix(-0.7071 0.7071 -0.7071 -0.7071 524.2452 8.81)" class="st4" width="26" height="26"/>
<text id="XMLID_22_" transform="matrix(1 0 0 1 124.1665 117.9056)" class="st5 st6">用户任务1</text>
<text id="XMLID_32_" transform="matrix(1 0 0 1 17.3335 141.754)" class="st5 st6">开始</text>
<text id="XMLID_33_" transform="matrix(1 0 0 1 482.3335 141.754)" class="st5 st6">结束</text>
<path id="XMLID_25_" class="st7" d="M120.7,116.7l-3-1.2c0,0-0.6-0.2-0.8-0.4c-0.1-0.1-0.1-0.5,0-0.8c0.1-0.4,1.6-2.1,1.6-3.6
	c0-2.3-1.6-4.3-3.5-4.3s-3.5,1.9-3.5,4.3c0,1.5,1.3,3.2,1.5,3.5c0.1,0.3,0.1,0.8,0,0.9c-0.2,0.2-0.9,0.4-0.9,0.4l-2.6,1.2
	c-0.6,0.2-1.1,0.8-1.1,1.5v0.8c0,0.7,0.6,0.6,1.3,0.6h10.7c0.7,0,1.3,0.1,1.3-0.6v-0.8C121.7,117.5,121.3,116.9,120.7,116.7"/>
<text id="XMLID_28_" transform="matrix(1 0 0 1 359.2635 117.8531)" class="st5 st6">用户任务2</text>
<path id="XMLID_27_" class="st7" d="M355.8,116.6l-3-1.2c0,0-0.6-0.2-0.8-0.4c-0.1-0.1-0.1-0.5,0-0.8c0.1-0.4,1.6-2.1,1.6-3.6
	c0-2.3-1.6-4.3-3.5-4.3s-3.5,1.9-3.5,4.3c0,1.5,1.3,3.2,1.5,3.5c0.1,0.3,0.1,0.8,0,0.9c-0.2,0.2-0.9,0.4-0.9,0.4l-2.6,1.2
	c-0.6,0.2-1.1,0.8-1.1,1.5v0.8c0,0.7,0.6,0.6,1.3,0.6h10.7c0.7,0,1.3,0.1,1.3-0.6v-0.8C356.9,117.4,356.4,116.8,355.8,116.6"/>
<text id="XMLID_30_" transform="matrix(1 0 0 1 240.9158 192.7266)" class="st5 st6">用户任务3</text>
<path id="XMLID_29_" class="st7" d="M237.4,191.5l-3-1.2c0,0-0.6-0.2-0.8-0.4c-0.1-0.1-0.1-0.5,0-0.8c0.1-0.4,1.6-2.1,1.6-3.6
	c0-2.3-1.6-4.3-3.5-4.3s-3.5,1.9-3.5,4.3c0,1.5,1.3,3.2,1.5,3.5c0.1,0.3,0.1,0.8,0,0.9c-0.2,0.2-0.9,0.4-0.9,0.4l-2.6,1.2
	c-0.6,0.2-1.1,0.8-1.1,1.5v0.8c0,0.7,0.6,0.6,1.3,0.6h10.7c0.7,0,1.3,0.1,1.3-0.6V193C238.5,192.3,238,191.7,237.4,191.5"/>
<path id="XMLID_31_" class="st7" d="M261.7,112.8l4.8-5.3l-1.4-1.6l-4.8,5.3l-4.8-5.3l-1.4,1.6l4.8,5.8l-4.8,4.9l1.4,2l4.8-5.3
	l4.8,4.9l1.4-1.6L261.7,112.8z"/>
</svg>
