<?xml version="1.0" encoding="utf-8"?>
<!-- Generator: Adobe Illustrator 19.0.0, SVG Export Plug-In . SVG Version: 6.00 Build 0)  -->
<svg version="1.1" id="图层_1" xmlns="http://www.w3.org/2000/svg" xmlns:xlink="http://www.w3.org/1999/xlink" x="0px" y="0px"
	 viewBox="0 0 500 300" style="enable-background:new 0 0 500 300;" xml:space="preserve">
<style type="text/css">
	.st0{fill:#AAAAAA;}
	.st1{fill:#FFFFFF;stroke:#AAAAAA;stroke-width:2;stroke-miterlimit:10;}
	.st2{fill:#FFFFFF;stroke:#AAAAAA;stroke-miterlimit:10;}
	.st3{fill:#E5E5E5;}
	.st4{font-family:'SourceHanSansCN-Light-GBpc-EUC-H';}
	.st5{font-size:14px;}
	.st6{fill:#2C90E0;}
	.st7{fill:#8C8C8C;}
	.st8{font-size:12px;}
	.st9{fill:#F29F1C;}
	.st10{font-size:11px;}
	.st11{fill:#7EC311;}
</style>
<g id="XMLID_22_">
	<rect id="XMLID_1_" x="18.8" y="7.5" class="st0" width="2" height="285"/>
	<circle id="XMLID_2_" class="st1" cx="19.8" cy="53" r="12"/>
	<circle id="XMLID_4_" class="st1" cx="19.8" cy="189" r="12"/>
	<g id="XMLID_13_">
		<path id="XMLID_7_" class="st2" d="M482.9,29.5H62.1c-3.4,0-6.6,2.2-6.6,5.6v10.6L46.3,55l9.3,9.3v66.6c0,3.4,3.2,6.6,6.6,6.6
			h420.8c3.4,0,5.6-3.2,5.6-6.6V35.1C488.5,31.7,486.3,29.5,482.9,29.5z"/>
		<rect id="XMLID_3_" x="67" y="60" class="st3" width="410" height="1"/>
		<text id="XMLID_5_" transform="matrix(1 0 0 1 66.9998 51.6663)" class="st4 st5">会签节点</text>
		<text id="XMLID_17_" transform="matrix(1 0 0 1 119.4998 82.9357)" class="st6 st4 st5">执行人：张彬</text>
		<text id="XMLID_18_" transform="matrix(1 0 0 1 119.4998 104.657)" class="st7 st4 st8">2018-05-03 15:30:18</text>
		<text id="XMLID_19_" transform="matrix(1 0 0 1 119.4998 125.1666)" class="st7 st4 st8">审批意见：</text>
		<text id="XMLID_15_" transform="matrix(1 0 0 1 70.4738 125.1664)" class="st9 st4 st10">待审批</text>
		<g id="XMLID_14_">
			<path id="XMLID_16_" class="st9" d="M105,102.5h-1.9l-3.6-3.8c1.5-0.5,2.6-2,2.6-3.6c0-2.1-1.7-3.9-3.8-3.9
				c-2.1,0-3.8,1.7-3.8,3.9c0,1.7,1.1,3.1,2.6,3.6l-3.6,3.8h-1.9c-0.9,0-1.7,0.8-1.7,1.7v2.8c0,0.9,0.8,1.7,1.7,1.7H105
				c0.9,0,1.7-0.8,1.7-1.7c0,0,0,0,0,0v-2.8C106.7,103.3,106,102.5,105,102.5L105,102.5z M96.4,95.1c0-1.1,0.9-2,1.9-2
				c1.1,0,1.9,0.9,1.9,2c0,1.1-0.9,2-1.9,2h0C97.2,97.1,96.3,96.2,96.4,95.1L96.4,95.1z M98.2,100.3l0.3,0l1.8,2.2h-4L98.2,100.3
				L98.2,100.3z M104.6,106.4c0,0.1-0.1,0.2-0.2,0.2H92.2c-0.1,0-0.2-0.1-0.2-0.2v-1.7c0-0.1,0.1-0.2,0.2-0.2h12.2
				c0.1,0,0.2,0.1,0.2,0.2L104.6,106.4L104.6,106.4z M85,92.5h7.6c0.7,0,1.3-0.6,1.3-1.3S93.3,90,92.6,90h-6.4V78.7
				c0-0.7-0.5-1.3-1.2-1.3s-1.3,0.5-1.3,1.2c0,0,0,0.1,0,0.1v12.4c0,0,0,0,0,0c0,0,0,0,0,0C83.7,91.9,84.3,92.5,85,92.5L85,92.5z"/>
			<path id="XMLID_6_" class="st9" d="M106.9,87.5c-0.7-10.4-9.4-18.6-19.9-18.6c-11,0-20,9-20,20c0,10.7,7.8,19.2,18.4,19.6
				c0.1,0,0.1,0,0.1,0H86c0.1,0,0.2,0,0.2,0c0.1,0,0,0.1,0.1,0.1c0,0,0-0.1-0.1-0.1c0.7,0,1.2-0.6,1.1-1.2c0-0.7-0.6-1.2-1.2-1.1
				h-0.7c-9-0.7-15.9-8.2-15.9-17.3c0-9.6,7.8-17.3,17.3-17.3c9.1,0,16.6,7,17.3,16.1l0,0c0,0.1,0,0.1,0,0.2v1.3
				c0,0.8,0.6,1.4,1.4,1.4c0.7,0,1.2-0.5,1.3-1.2l0,0l0-0.1c0,0,0-0.1,0-0.1v-1.3C106.9,87.7,106.9,87.6,106.9,87.5L106.9,87.5z"/>
		</g>
	</g>
	<path id="XMLID_36_" class="st2" d="M482.9,166.5H62.1c-3.4,0-6.6,2.2-6.6,5.6v10.6l-9.3,9.3l9.3,9.3v66.6c0,3.4,3.2,6.6,6.6,6.6
		h420.8c3.4,0,5.6-3.2,5.6-6.6v-95.8C488.5,168.7,486.3,166.5,482.9,166.5z"/>
	<rect id="XMLID_35_" x="67" y="197" class="st3" width="410" height="1"/>
	<text id="XMLID_34_" transform="matrix(1 0 0 1 66.9998 188.6663)" class="st4 st5">用户节点</text>
	<text id="XMLID_33_" transform="matrix(1 0 0 1 119.4998 219.9357)" class="st6 st4 st5">执行人：马东东</text>
	<text id="XMLID_32_" transform="matrix(1 0 0 1 119.4998 241.657)" class="st7 st4 st8">2018-05-01 10:23:58</text>
	<text id="XMLID_31_" transform="matrix(1 0 0 1 119.4998 262.1666)" class="st7 st4 st8">审批意见：已审，可办理！</text>
	<text id="XMLID_30_" transform="matrix(1 0 0 1 75.9742 262.1664)" class="st11 st4 st10">同意</text>
	<g id="XMLID_39_">
		<path id="XMLID_37_" class="st11" d="M96.8,221.7l-1.7-1.7c-0.2-0.2-0.6-0.2-0.8,0c0,0,0,0,0,0l-8.8,9.5l-5.1-5.2
			c-0.2-0.2-0.6-0.2-0.8,0c0,0,0,0,0,0l-1.7,1.8c-0.2,0.2-0.2,0.6,0,0.9l7.2,7.4c0.1,0.1,0.1,0.1,0.2,0.1c0.2,0.1,0.5,0.1,0.7-0.1
			l1.6-1.8l0,0c0,0,0,0,0,0l9.2-9.9C97,222.3,97,221.9,96.8,221.7L96.8,221.7z"/>
		<path id="XMLID_40_" class="st11" d="M87,248.5c-2.9,0-5.7-0.6-8.3-1.7c-2.5-1.1-4.8-2.6-6.8-4.6c-2-2-3.5-4.2-4.6-6.8
			c-1.1-2.6-1.7-5.4-1.7-8.3c0-2.9,0.6-5.7,1.7-8.3c1.1-2.5,2.6-4.8,4.6-6.8c2-2,4.2-3.5,6.8-4.6c2.6-1.1,5.4-1.7,8.3-1.7
			s5.7,0.6,8.3,1.7c2.5,1.1,4.8,2.6,6.8,4.6s3.5,4.2,4.6,6.8c1.1,2.6,1.7,5.4,1.7,8.3s-0.6,5.7-1.7,8.3c-1.1,2.5-2.6,4.8-4.6,6.8
			s-4.2,3.5-6.8,4.6C92.6,247.9,89.8,248.5,87,248.5L87,248.5z M87,208.3c-11,0-18.9,8-18.9,18.9s8,18.9,18.9,18.9s18.9-8,18.9-18.9
			S98,208.3,87,208.3z"/>
	</g>
</g>
</svg>
